<?xml version="1.0" encoding="UTF-8" standalone="no"?>
<svg width="184px" height="30px" viewBox="0 0 184 30" version="1.1" xmlns="http://www.w3.org/2000/svg" xmlns:xlink="http://www.w3.org/1999/xlink">
    <!-- Generator: Sketch 49.3 (51167) - http://www.bohemiancoding.com/sketch -->
    <title>warehouse-logo-black</title>
    <desc>Created with Sketch.</desc>
    <defs></defs>
    <g id="Page-1" stroke="none" stroke-width="1" fill="none" fill-rule="evenodd">
        <g id="warehouse-logo-black" fill="#003F7D" fill-rule="nonzero">
            <path d="M18.8,29 L15,29 L11.9,10.5 L11.8,10.5 L8.7,29 L4.9,29 L0.6,0.5 L5,0.5 L7,18.6 L7.1,18.6 L10.3,0.5 L13.4,0.5 L16.7,19 L16.8,19 L18.8,0.5 L23.1,0.5 L18.8,29 Z M31.9,8.7 L29.8,19 L33.9,19 L31.9,8.7 Z M30.2,0.5 L33.6,0.5 L39.9,29 L35.8,29 L34.6,22.9 L29,22.9 L27.9,29 L23.8,29 L30.2,0.5 Z M46,13.2 L48.3,13.2 C49,13.2 49.6,13.1 50,12.9 C50.4,12.7 50.8,12.4 51,12 C51.2,11.6 51.4,11.2 51.5,10.6 C51.6,10.1 51.6,9.4 51.6,8.7 C51.6,8 51.6,7.3 51.5,6.8 C51.4,6.3 51.3,5.8 51,5.4 C50.7,5 50.4,4.7 49.9,4.5 C49.4,4.3 48.8,4.2 48.1,4.2 L46,4.2 L46,13.2 Z M41.9,0.5 L48.5,0.5 C53.3,0.5 55.7,3.3 55.7,8.9 C55.7,10.6 55.4,12 54.9,13.2 C54.4,14.4 53.5,15.3 52.2,16.1 L56.6,29.1 L52.3,29.1 L48.5,16.9 L46,16.9 L46,29 L41.9,29 L41.9,0.5 Z M59,0.5 L71.2,0.5 L71.2,4.3 L63,4.3 L63,12.7 L70,12.7 L70,16.5 L63,16.5 L63,24.9 L71.1,24.9 L71.1,29 L59,29 L59,0.5 Z M103.9,0.5 L108,0.5 L108,12.7 L113,12.7 L113,0.5 L117.1,0.5 L117.1,29 L113,29 L113,16.3 L108,16.3 L108,29 L103.9,29 L103.9,0.5 Z M120.7,7.2 C120.7,6.1 120.9,5 121.3,4.2 C121.7,3.4 122.2,2.6 122.9,2 C123.6,1.4 124.3,1 125.1,0.7 C125.9,0.4 126.7,0.3 127.6,0.3 C128.4,0.3 129.2,0.4 130.1,0.7 C131,1 131.6,1.4 132.3,2 C133,2.6 133.5,3.3 133.9,4.2 C134.3,5.1 134.5,6.1 134.5,7.2 L134.5,22.2 C134.5,23.4 134.3,24.4 133.9,25.3 C133.5,26.2 133,26.9 132.3,27.5 C131.6,28.1 130.9,28.5 130.1,28.8 C129.3,29.1 128.5,29.2 127.6,29.2 C126.8,29.2 126,29.1 125.1,28.8 C124.2,28.5 123.6,28.1 122.9,27.5 C122.2,26.9 121.7,26.2 121.3,25.3 C120.9,24.4 120.7,23.4 120.7,22.2 L120.7,7.2 Z M124.8,22.3 C124.8,23.3 125.1,24 125.6,24.5 C126.1,25 126.8,25.2 127.5,25.2 C128.2,25.2 128.9,25 129.4,24.5 C129.9,24 130.2,23.3 130.2,22.3 L130.2,7.3 C130.2,6.3 129.9,5.6 129.4,5.1 C128.9,4.6 128.2,4.4 127.5,4.4 C126.8,4.4 126.1,4.6 125.6,5.1 C125.1,5.6 124.8,6.3 124.8,7.3 L124.8,22.3 Z M151.2,22.6 C151.2,23.5 151,24.4 150.7,25.2 C150.4,26 149.9,26.7 149.3,27.3 C148.7,27.9 148,28.4 147.2,28.7 C146.4,29 145.5,29.2 144.6,29.2 C143.7,29.2 142.8,29 142,28.7 C141.2,28.4 140.5,27.9 139.9,27.3 C139.3,26.7 138.8,26 138.5,25.2 C138.2,24.4 138,23.5 138,22.6 L138,0.5 L142.1,0.5 L142.1,22.2 C142.1,23.2 142.3,24 142.8,24.4 C143.3,24.9 143.9,25.1 144.6,25.1 C145.3,25.1 145.9,24.9 146.4,24.4 C146.9,23.9 147.1,23.2 147.1,22.2 L147.1,0.5 L151.2,0.5 L151.2,22.6 Z M168.2,8.7 L164.1,8.7 L164.1,7.8 C164.1,6.9 163.9,6.1 163.4,5.4 C162.9,4.7 162.2,4.4 161.2,4.4 C160.6,4.4 160.2,4.5 159.8,4.7 C159.4,4.9 159.2,5.2 159,5.5 C158.8,5.8 158.7,6.2 158.6,6.7 C158.5,7.1 158.5,7.6 158.5,8.1 C158.5,8.7 158.5,9.1 158.6,9.5 C158.6,9.9 158.7,10.2 158.9,10.5 C159.1,10.8 159.3,11 159.6,11.2 C159.9,11.4 160.3,11.6 160.9,11.8 L164,13 C164.9,13.3 165.6,13.8 166.2,14.2 C166.8,14.7 167.2,15.2 167.5,15.8 C167.8,16.4 168,17.1 168.1,18 C168.2,18.8 168.3,19.7 168.3,20.8 C168.3,22 168.2,23.1 167.9,24.1 C167.7,25.1 167.3,26 166.7,26.7 C166.2,27.4 165.4,28 164.5,28.4 C163.6,28.8 162.5,29 161.2,29 C160.2,29 159.3,28.8 158.4,28.5 C157.5,28.2 156.8,27.7 156.2,27.1 C155.6,26.5 155.1,25.8 154.7,25 C154.3,24.2 154.2,23.3 154.2,22.3 L154.2,21 L158.3,21 L158.3,22.3 C158.3,23 158.5,23.7 159,24.3 C159.5,24.9 160.2,25.2 161.2,25.2 C161.9,25.2 162.4,25.1 162.8,24.9 C163.2,24.7 163.5,24.4 163.7,24.1 C163.9,23.7 164,23.3 164.1,22.8 C164.2,22.3 164.2,21.7 164.2,21 C164.2,20.3 164.2,19.6 164.1,19.2 C164,18.7 163.9,18.3 163.8,18 C163.6,17.7 163.4,17.5 163.1,17.3 C162.8,17.1 162.4,16.9 161.9,16.7 L159,15.5 C157.2,14.8 156.1,13.8 155.5,12.6 C154.9,11.4 154.6,9.9 154.6,8.1 C154.6,7 154.7,6 155,5.1 C155.3,4.2 155.7,3.3 156.3,2.6 C156.9,1.9 157.6,1.4 158.5,0.9 C159.4,0.4 160.4,0.3 161.6,0.3 C162.6,0.3 163.5,0.5 164.4,0.9 C165.2,1.3 166,1.8 166.6,2.4 C167.2,3 167.7,3.7 168,4.5 C168.3,5.3 168.5,6 168.5,6.8 L168.5,8.7 L168.2,8.7 Z M171.3,0.5 L183.5,0.5 L183.5,4.3 L175.4,4.3 L175.4,12.7 L182.4,12.7 L182.4,16.5 L175.4,16.5 L175.4,24.9 L183.5,24.9 L183.5,29 L171.3,29 L171.3,0.5 Z" id="WARE-HOUSE"></path>
            <polygon id="Combined-Shape" points="77 8.3 87.5 0 98 8.3 98 29 77 29"></polygon>
        </g>
    </g>
</svg>